<?xml version="1.0" encoding="utf-8"?>
<!-- Generator: Adobe Illustrator 25.4.1, SVG Export Plug-In . SVG Version: 6.00 Build 0)  -->
<svg version="1.1" id="Layer_1" xmlns="http://www.w3.org/2000/svg" xmlns:xlink="http://www.w3.org/1999/xlink" x="0px" y="0px"
	 viewBox="0 0 458.1 75.2" style="enable-background:new 0 0 458.1 75.2;" xml:space="preserve" class='svg'>
<style type="text/css">
	.st0{fill:#07131C;}
	.st1{fill:#16EB8F;}
</style>
<g>
	<g>
		<g>
			<polygon class="st0" points="189.9,52 180.1,27.6 170.9,27.6 185,61.3 193.5,61.3 207.6,27.6 198.8,27.6 			"/>
			<path class="st0" d="M236.4,47.6c0,2.5-0.5,4.3-1.6,5.5c-1.1,1.2-2.8,1.8-5.2,1.8c-2.4,0-4.2-0.6-5.3-1.8
				c-1.1-1.2-1.7-3.1-1.7-5.5v-20h-8.5v21c0,3.1,0.6,5.7,1.9,7.7c1.3,2,3.1,3.5,5.4,4.5c2.3,1,5,1.5,8.1,1.5c4.7,0,8.4-1.1,11-3.4
				c2.7-2.2,4-5.7,4-10.3v-21h-8.1V47.6z"/>
			<path class="st0" d="M283.2,40.3c-4.5-1.6-4.7-7,2.3-7c3.5,0,5.3,1,9.6,3.3v-6.9c-4-2.2-6.7-2.7-10.6-2.8
				c-14.5-0.4-17.5,15.7-7,19.8c4.8,1.9,10.4,2.1,10.4,5.5c0,3.4-6.3,6.3-16.4-0.3v7.7c10.5,4.8,25,3.2,25.2-8.2
				C296.6,42.7,289.5,42.5,283.2,40.3z"/>
			<path class="st0" d="M305.6,30.8c-2.4,2.7-0.9,3.9-1.3,43.2h8.4V60.4c4.1,2.2,11.8,2.7,16.7-0.3c8.8-5.6,8-20.3,4.8-26.1
				C328.2,23.1,309.8,26,305.6,30.8z M326.8,50.6c-2.3,5.5-9.4,5.6-14.1,2.9V36.3c0-3.1,9.1-3.2,11.9-1.2
				C328.5,38.1,328.3,47,326.8,50.6z"/>
			<path class="st0" d="M345.3,29.6v7.7c2.7-2.2,7.3-3.5,10.8-3.5c9.6,0,7.7,6.8,7.9,9c-5-2.9-12.2-3-16.3-1.1
				c-8,3.7-9.5,20.6,8.8,20.6c7.2,0,15.8-1,15.8-8.1c-0.2-14.8,0.6-17.5-0.8-20.7C367.4,24.2,350.5,26.2,345.3,29.6z M357,56
				c-9.5,0-9.1-12.8,5.3-9.1c0.6,0.2,1.1,0.3,1.6,0.5C363.5,54.3,366.2,56,357,56z"/>
			<path class="st0" d="M398.6,54.7c-7,0-10.3-3.2-10.3-10.8c0-3.5,0.9-6.1,2.6-7.6c4.3-3.9,11.3-2.3,16.6-0.1v-7.4
				c-1.5-0.7-3.2-1.2-5-1.5c-13.1-2.5-22.5,3.4-22.5,17.5c0,16.2,15.3,20.9,27.7,14.9v-7.3C404.8,53.7,401.8,54.7,398.6,54.7z"/>
			<path class="st0" d="M421.9,46.5h22.9c0.1-6.5-1.1-13.8-6.4-17.5c-2.3-1.6-5.2-2.4-8.9-2.4c-10.9,0-16.2,7.1-16.2,18.2
				c0,16.7,15,21,28.8,15.2v-7.6C432.7,56.6,423,56.6,421.9,46.5z M429.2,33.3c4.8,0,6.6,2.8,7.1,7.5H422
				C422.6,36.2,424.6,33.3,429.2,33.3z"/>
		</g>
	</g>
	<g>
		<path class="st1" d="M136.7,28v32c0,8.3-6.8,15.1-15.1,15.1H88.4c-8.3,0-15.1-6.8-15.1-15.1v-1.9l14.3-16.7v18.6
			c0,0.4,0.4,0.8,0.8,0.8h33.2c0.4,0,0.8-0.4,0.8-0.8V33.9L103,14.3h-1.6L87.6,30.4L49.3,75.2H34.5L0,28h17.8l24,32.8h0.9L94.8,0
			h14.2L136.7,28z"/>
	</g>
	<g>
		<g>
			<path class="st0" d="M448.5,31.5c0-0.4,0.1-0.9,0.2-1.3c0.1-0.4,0.3-0.8,0.5-1.1c0.2-0.4,0.5-0.7,0.7-1c0.3-0.3,0.6-0.5,1-0.7
				s0.7-0.4,1.1-0.5c0.4-0.1,0.8-0.2,1.3-0.2c0.4,0,0.9,0.1,1.3,0.2c0.4,0.1,0.8,0.3,1.2,0.5c0.4,0.2,0.7,0.5,1,0.7
				c0.3,0.3,0.5,0.6,0.7,1s0.4,0.7,0.5,1.2c0.1,0.4,0.2,0.8,0.2,1.3c0,0.4-0.1,0.9-0.2,1.3c-0.1,0.4-0.3,0.8-0.5,1.1
				c-0.2,0.4-0.5,0.7-0.8,1c-0.3,0.3-0.6,0.5-1,0.7c-0.4,0.2-0.7,0.4-1.1,0.5c-0.4,0.1-0.8,0.2-1.3,0.2c-0.4,0-0.9-0.1-1.3-0.2
				s-0.8-0.3-1.1-0.5c-0.4-0.2-0.7-0.5-1-0.8s-0.5-0.6-0.8-1c-0.2-0.4-0.4-0.7-0.5-1.1C448.5,32.3,448.5,31.9,448.5,31.5z
				 M449.4,31.5c0,0.6,0.1,1.1,0.3,1.6c0.2,0.5,0.5,0.9,0.8,1.3c0.3,0.4,0.8,0.7,1.2,0.9c0.5,0.2,1,0.3,1.6,0.3
				c0.6,0,1.1-0.1,1.6-0.3c0.5-0.2,0.9-0.5,1.2-0.9c0.3-0.4,0.6-0.8,0.8-1.3c0.2-0.5,0.3-1,0.3-1.6c0-0.6-0.1-1.1-0.3-1.6
				c-0.2-0.5-0.4-0.9-0.8-1.3c-0.3-0.4-0.7-0.7-1.2-0.9c-0.5-0.2-1-0.3-1.6-0.3c-0.6,0-1.1,0.1-1.6,0.3c-0.5,0.2-0.9,0.5-1.2,0.9
				c-0.3,0.4-0.6,0.8-0.8,1.3C449.5,30.4,449.4,30.9,449.4,31.5z M451.4,28.7h2.1c0.3,0,0.5,0,0.8,0.1c0.2,0.1,0.4,0.1,0.6,0.3
				c0.2,0.1,0.3,0.3,0.4,0.5c0.1,0.2,0.1,0.5,0.1,0.8c0,0.2,0,0.4-0.1,0.6c-0.1,0.2-0.2,0.4-0.3,0.5c-0.1,0.1-0.3,0.3-0.5,0.3
				c-0.2,0.1-0.4,0.1-0.6,0.1l1.6,2.5h-1l-1.6-2.5h-0.8v2.5h-0.9V28.7z M452.4,31.1h1.1c0.2,0,0.3,0,0.4,0c0.1,0,0.3-0.1,0.4-0.1
				c0.1-0.1,0.2-0.2,0.2-0.3c0.1-0.1,0.1-0.3,0.1-0.4c0-0.2,0-0.3-0.1-0.4c-0.1-0.1-0.2-0.2-0.3-0.2c-0.1-0.1-0.2-0.1-0.4-0.1
				c-0.1,0-0.3,0-0.4,0h-1.1V31.1z"/>
		</g>
	</g>
</g>
</svg>
